<svg xmlns="http://www.w3.org/2000/svg" viewBox="0 0 180 180" fill="none">
  <rect width="180" height="180" rx="40" fill="#FFF8E7" />
  <path
    d="M90 28C62 28 40 50 36 78c-4 28 6 56 24 72 6-22 12-44 34-56-22-12-28-40-22-68C72 42 80 28 90 28Z"
    fill="#3E7C3A"
  />
  <path
    d="M90 28c28 0 50 22 54 50 4 28-6 56-24 72-6-22-12-44-34-56 22-12 28-40 22-68C108 42 100 28 90 28Z"
    fill="#346832"
  />
  <ellipse cx="90" cy="96" rx="32" ry="52" fill="#F5C518" />
  <circle cx="76" cy="68" r="6" fill="#E8B010" />
  <circle cx="90" cy="64" r="6" fill="#E8B010" />
  <circle cx="104" cy="68" r="6" fill="#E8B010" />
  <circle cx="70" cy="84" r="6" fill="#E8B010" />
  <circle cx="84" cy="80" r="6" fill="#E8B010" />
  <circle cx="98" cy="84" r="6" fill="#E8B010" />
  <circle cx="108" cy="84" r="6" fill="#E8B010" />
  <circle cx="74" cy="98" r="6" fill="#E8B010" />
  <circle cx="88" cy="94" r="6" fill="#E8B010" />
  <circle cx="102" cy="98" r="6" fill="#E8B010" />
  <circle cx="78" cy="112" r="6" fill="#E8B010" />
  <circle cx="92" cy="108" r="6" fill="#E8B010" />
  <circle cx="106" cy="112" r="6" fill="#E8B010" />
  <circle cx="82" cy="126" r="5.5" fill="#E8B010" />
  <circle cx="96" cy="122" r="5.5" fill="#E8B010" />
  <circle cx="110" cy="126" r="5.5" fill="#E8B010" />
  <circle cx="86" cy="138" r="5" fill="#E8B010" />
  <circle cx="100" cy="138" r="5" fill="#E8B010" />
</svg>
