<svg xmlns="http://www.w3.org/2000/svg" viewBox="0 0 32 32" fill="none">
  <!-- Hojas -->
  <path
    d="M16 4C11 4 7 8 6 13c-1 5 1 10 4 13 1-4 2-8 6-10-4-2-5-7-4-12C13 6 14 4 16 4Z"
    fill="#3E7C3A"
  />
  <path
    d="M16 4c5 0 9 4 10 9 1 5-1 10-4 13-1-4-2-8-6-10 4-2 5-7 4-12C19 6 18 4 16 4Z"
    fill="#346832"
  />
  <!-- Mazorca -->
  <ellipse cx="16" cy="17" rx="5.5" ry="9" fill="#F5C518" />
  <!-- Granos -->
  <circle cx="13.5" cy="12" r="1.1" fill="#E8B010" />
  <circle cx="16" cy="11.5" r="1.1" fill="#E8B010" />
  <circle cx="18.5" cy="12" r="1.1" fill="#E8B010" />
  <circle cx="12.5" cy="14.5" r="1.1" fill="#E8B010" />
  <circle cx="15" cy="14" r="1.1" fill="#E8B010" />
  <circle cx="17.5" cy="14.5" r="1.1" fill="#E8B010" />
  <circle cx="19.5" cy="14.5" r="1.1" fill="#E8B010" />
  <circle cx="13" cy="17" r="1.1" fill="#E8B010" />
  <circle cx="15.5" cy="16.5" r="1.1" fill="#E8B010" />
  <circle cx="18" cy="17" r="1.1" fill="#E8B010" />
  <circle cx="13.5" cy="19.5" r="1.1" fill="#E8B010" />
  <circle cx="16" cy="19" r="1.1" fill="#E8B010" />
  <circle cx="18.5" cy="19.5" r="1.1" fill="#E8B010" />
  <circle cx="14" cy="22" r="1.1" fill="#E8B010" />
  <circle cx="16.5" cy="21.5" r="1.1" fill="#E8B010" />
  <circle cx="19" cy="22" r="1.1" fill="#E8B010" />
  <circle cx="15" cy="24.5" r="1" fill="#E8B010" />
  <circle cx="17.5" cy="24.5" r="1" fill="#E8B010" />
</svg>
